<svg xmlns="http://www.w3.org/2000/svg" viewBox="0 0 16 16">
    <!-- Parquet -->
    <rect width="16" height="16" fill="none"/>
    <g fill="#54ABEE">
        <polygon points="0.3125,6.9375 0.375,6.875 1.75,6.125 4.75,4.5 7.875,2.8125 8,2.75 8.125,2.75 8.8125,3.125 8.8125,3.1875 8.6875,3.3125 8.375,3.5 6.75,4.4375 2.625,6.8125 1.3125,7.5625 1.0625,7.6875"/>
        <polygon points="5.9375,5.1875 6.125,5.0625 7.5,4.25 8.5625,3.625 9,3.375 9.125,3.3125 9.625,3.5625 9.9375,3.75 10,3.8125 9.9375,3.875 9.25,4.3125 8.0625,5.0625 7.0625,5.6875 6.8125,5.8125 6.75,5.8125 6.375,5.5625 5.9375,5.25"/>
        <polygon points="8.9375,4.8125 9.6875,4.3125 10.1875,4 10.3125,3.9375 10.4375,4 11.25,4.4375 11.25,4.5 11,4.6875 10.1875,5.25 10,5.375 9.8125,5.375 9.6875,5.3125 9.0625,4.9375"/>
        <polygon points="6.25,8.4375 6.3125,8.375 9.625,6 11.375,4.75 11.5,4.6875 11.6875,4.6875 11.9375,4.8125 12.625,5.1875 12.375,5.4375 10.9375,6.5625 7.8125,9 7.3125,9.375 7.1875,9.3125 6.4375,8.6875 6.25,8.5"/>
        <polygon points="2.4375,9 5.625,6.9375 8.625,5 8.6875,5 9.5,5.5 9.625,5.625 9.5625,5.6875 8.3125,6.5625 5.625,8.4375 3.5625,9.875 3.375,10 3.3125,10 2.4375,9.125"/>
        <polygon points="1.3125,7.9375 1.375,7.875 1.5625,7.75 2.9375,6.9375 5.0625,5.6875 5.5,5.4375 5.6875,5.4375 5.875,5.5625 6.3125,5.875 6.4375,6 6.4375,6.0625 6.375,6.125 5.6875,6.5625 2.8125,8.375 2.3125,8.6875 2.1875,8.75 2.125,8.75"/>
        <polygon points="9.8125,7.9375 10,7.75 12.875,5.4375 13.0625,5.4375 13.4375,5.625 14.125,6 14.125,6.0625 13.5625,6.5625 11.9375,7.8125 11.4375,8.25 10.9375,8.75 10.8125,8.75 10.3125,8.3125 9.875,8"/>
        <polygon points="6.6875,13.375 6.9375,13.125 7.6875,12.4375 13.5625,7.0625 14.25,6.4375 14.5,6.25 14.5625,6.25 15.0625,6.5 15.75,6.875 15.75,7 13.3125,9.5 10.3125,12.5625 8.0625,14.8125 6.6875,13.4375"/>
        <polygon points="5.0625,11.75 5.1875,11.625 6.1875,10.8125 9.375,8.25 9.5,8.1875 9.625,8.25 10.5,8.875 10.6875,9.0625 10.3125,9.4375 8.6875,10.875 6.5625,12.75 6.3125,12.9375 6.1875,12.9375 5.25,12"/>
        <polygon points="3.6875,10.3125 3.875,10.125 5.625,8.875 5.8125,8.75 5.875,8.75 6.75,9.5 6.875,9.625 6.875,9.6875 6.6875,9.875 5.25,11 4.75,11.375 4.6875,11.375 3.6875,10.375"/>
    </g>

    <!-- Input Arrow (scaled) -->
    <path fill="#000" d="M10.3125 13 H13.125 V12.125 L15.3125 13.4375 L13.125 14.75 V13.875 H10.3125 Z"/>
</svg>